<svg data-v-fde0c5aa="" xmlns="http://www.w3.org/2000/svg" viewBox="0 0 300 300" class="iconLeft"><!----><defs data-v-fde0c5aa=""><!----></defs><rect data-v-fde0c5aa="" fill="transparent" x="0" y="0" width="300px" height="300px" class="logo-background-square"></rect><defs data-v-fde0c5aa=""><!----></defs><g data-v-fde0c5aa="" id="12c3b021-9323-4570-9de7-292f1ea3bd6e" fill="#000000" transform="matrix(1.782449717432996,0,0,1.782449717432996,105.42595556606929,140.85603263934127)"><path d="M8.55 4.76L8.55 5.32L8.55 5.32Q8.55 8.11 7.48 9.30L7.48 9.30L7.48 9.30Q6.41 10.50 4.07 10.50L4.07 10.50L0.85 10.50L0.85-0.42L4.07-0.42L4.07-0.42Q6.41-0.42 7.48 0.78L7.48 0.78L7.48 0.78Q8.55 1.97 8.55 4.76L8.55 4.76ZM2.73 1.22L2.73 8.86L3.96 8.86L3.96 8.86Q5.40 8.86 6.02 8.03L6.02 8.03L6.02 8.03Q6.64 7.20 6.64 5.32L6.64 5.32L6.64 4.76L6.64 4.76Q6.64 2.88 6.02 2.05L6.02 2.05L6.02 2.05Q5.40 1.22 3.96 1.22L3.96 1.22L2.73 1.22ZM13.62 2.90L13.62 2.90L13.62 2.90Q13.66 2.90 13.74 2.91L13.74 2.91L13.74 2.91Q13.82 2.91 13.83 2.91L13.83 2.91L13.83 4.68L13.52 4.68L13.52 4.68Q12.32 4.68 11.80 5.46L11.80 5.46L11.80 10.50L9.98 10.50L9.98 5.18L9.86 3.08L11.47 3.08L11.62 3.98L11.62 3.98Q12.36 2.90 13.62 2.90ZM20.71 9.68L20.71 9.68L20.71 9.68Q19.87 10.68 18.19 10.68L18.19 10.68L18.19 10.68Q16.51 10.68 15.67 9.68L15.67 9.68L15.67 9.68Q14.83 8.68 14.83 7.01L14.83 7.01L14.83 6.57L14.83 6.57Q14.83 4.89 15.67 3.89L15.67 3.89L15.67 3.89Q16.51 2.90 18.19 2.90L18.19 2.90L18.19 2.90Q19.87 2.90 20.71 3.89L20.71 3.89L20.71 3.89Q21.55 4.89 21.55 6.57L21.55 6.57L21.55 7.01L21.55 7.01Q21.55 8.68 20.71 9.68ZM16.65 7.01L16.65 7.01Q16.65 9.09 18.19 9.09L18.19 9.09L18.19 9.09Q19.73 9.09 19.73 7.01L19.73 7.01L19.73 6.57L19.73 6.57Q19.73 4.48 18.19 4.48L18.19 4.48L18.19 4.48Q16.65 4.48 16.65 6.57L16.65 6.57L16.65 7.01ZM29.22 5.42L29.22 10.50L27.41 10.50L27.41 5.71L27.41 5.71Q27.41 5.15 27.12 4.82L27.12 4.82L27.12 4.82Q26.82 4.48 26.24 4.48L26.24 4.48L26.24 4.48Q25.21 4.48 24.70 5.33L24.70 5.33L24.70 10.50L22.88 10.50L22.88 5.18L22.75 3.08L24.36 3.08L24.53 4.06L24.53 4.06Q25.33 2.90 26.94 2.90L26.94 2.90L26.94 2.90Q28.08 2.90 28.65 3.61L28.65 3.61L28.65 3.61Q29.22 4.33 29.22 5.42L29.22 5.42ZM37.17 6.61L37.17 7.46L32.27 7.46L32.27 7.46Q32.37 9.27 33.94 9.27L33.94 9.27L33.94 9.27Q34.64 9.27 35.04 8.93L35.04 8.93L35.04 8.93Q35.45 8.58 35.45 8.12L35.45 8.12L37.17 8.12L37.17 8.18L37.17 8.18Q37.17 9.23 36.31 9.95L36.31 9.95L36.31 9.95Q35.45 10.68 33.92 10.68L33.92 10.68L33.92 10.68Q32.20 10.68 31.33 9.66L31.33 9.66L31.33 9.66Q30.45 8.64 30.45 6.97L30.45 6.97L30.45 6.61L30.45 6.61Q30.45 4.94 31.32 3.92L31.32 3.92L31.32 3.92Q32.19 2.90 33.85 2.90L33.85 2.90L33.85 2.90Q35.49 2.90 36.33 3.92L36.33 3.92L36.33 3.92Q37.17 4.94 37.17 6.61L37.17 6.61ZM33.81 4.31L33.81 4.31L33.81 4.31Q32.38 4.31 32.27 6.12L32.27 6.12L35.34 6.12L35.34 6.12Q35.25 4.31 33.81 4.31ZM38.08 10.50L38.08 9.25L41.62 4.63L40.04 4.68L38.22 4.68L38.22 3.08L44.00 3.08L44.00 4.33L40.46 8.95L42.04 8.90L44.14 8.90L44.14 10.50L38.08 10.50ZM53.77 4.12L53.77-0.42L55.65-0.42L55.65 10.50L53.77 10.50L53.77 5.74L50.06 5.74L50.06 10.50L48.19 10.50L48.19-0.42L50.06-0.42L50.06 4.12L53.77 4.12ZM62.89 9.68L62.89 9.68L62.89 9.68Q62.05 10.68 60.37 10.68L60.37 10.68L60.37 10.68Q58.69 10.68 57.85 9.68L57.85 9.68L57.85 9.68Q57.01 8.68 57.01 7.01L57.01 7.01L57.01 6.57L57.01 6.57Q57.01 4.89 57.85 3.89L57.85 3.89L57.85 3.89Q58.69 2.90 60.37 2.90L60.37 2.90L60.37 2.90Q62.05 2.90 62.89 3.89L62.89 3.89L62.89 3.89Q63.73 4.89 63.73 6.57L63.73 6.57L63.73 7.01L63.73 7.01Q63.73 8.68 62.89 9.68ZM58.83 7.01L58.83 7.01Q58.83 9.09 60.37 9.09L60.37 9.09L60.37 9.09Q61.91 9.09 61.91 7.01L61.91 7.01L61.91 6.57L61.91 6.57Q61.91 4.48 60.37 4.48L60.37 4.48L60.37 4.48Q58.83 4.48 58.83 6.57L58.83 6.57L58.83 7.01ZM64.97 8.15L64.97 3.08L66.78 3.08L66.78 7.87L66.78 7.87Q66.78 9.09 67.97 9.09L67.97 9.09L67.97 9.09Q68.98 9.09 69.51 8.25L69.51 8.25L69.51 3.08L71.33 3.08L71.33 8.40L71.44 10.50L69.83 10.50L69.66 9.52L69.66 9.52Q68.87 10.68 67.26 10.68L67.26 10.68L67.26 10.68Q66.11 10.68 65.54 9.97L65.54 9.97L65.54 9.97Q64.97 9.25 64.97 8.15L64.97 8.15ZM75.81 9.27L75.81 9.27L75.81 9.27Q76.44 9.27 76.76 9.02L76.76 9.02L76.76 9.02Q77.08 8.76 77.08 8.34L77.08 8.34L77.08 8.34Q77.08 7.87 76.78 7.67L76.78 7.67L76.78 7.67Q76.47 7.46 75.67 7.39L75.67 7.39L75.67 7.39Q74.13 7.27 73.47 6.80L73.47 6.80L73.47 6.80Q72.81 6.33 72.81 5.35L72.81 5.35L72.81 5.24L72.81 5.24Q72.81 4.09 73.63 3.49L73.63 3.49L73.63 3.49Q74.45 2.90 75.81 2.90L75.81 2.90L75.81 2.90Q78.82 2.90 78.82 5.43L78.82 5.43L78.82 5.50L77.04 5.50L77.04 5.50Q77.04 4.31 75.81 4.31L75.81 4.31L75.81 4.31Q75.24 4.31 74.92 4.55L74.92 4.55L74.92 4.55Q74.61 4.79 74.61 5.19L74.61 5.19L74.61 5.19Q74.61 5.63 74.89 5.83L74.89 5.83L74.89 5.83Q75.18 6.03 75.96 6.09L75.96 6.09L75.96 6.09Q77.48 6.22 78.19 6.66L78.19 6.66L78.19 6.66Q78.90 7.11 78.90 8.18L78.90 8.18L78.90 8.27L78.90 8.27Q78.90 9.39 78.11 10.04L78.11 10.04L78.11 10.04Q77.32 10.68 75.81 10.68L75.81 10.68L75.81 10.68Q74.28 10.68 73.50 10.00L73.50 10.00L73.50 10.00Q72.72 9.31 72.72 8.23L72.72 8.23L72.72 8.18L74.52 8.18L74.52 8.18Q74.52 9.27 75.81 9.27ZM86.72 6.61L86.72 7.46L81.82 7.46L81.82 7.46Q81.91 9.27 83.48 9.27L83.48 9.27L83.48 9.27Q84.18 9.27 84.59 8.93L84.59 8.93L84.59 8.93Q84.99 8.58 84.99 8.12L84.99 8.12L86.72 8.12L86.72 8.18L86.72 8.18Q86.72 9.23 85.86 9.95L85.86 9.95L85.86 9.95Q84.99 10.68 83.47 10.68L83.47 10.68L83.47 10.68Q81.75 10.68 80.87 9.66L80.87 9.66L80.87 9.66Q80.00 8.64 80.00 6.97L80.00 6.97L80.00 6.61L80.00 6.61Q80.00 4.94 80.86 3.92L80.86 3.92L80.86 3.92Q81.73 2.90 83.40 2.90L83.40 2.90L83.40 2.90Q85.04 2.90 85.88 3.92L85.88 3.92L85.88 3.92Q86.72 4.94 86.72 6.61L86.72 6.61ZM83.36 4.31L83.36 4.31L83.36 4.31Q81.93 4.31 81.82 6.12L81.82 6.12L84.88 6.12L84.88 6.12Q84.80 4.31 83.36 4.31Z"></path></g><defs data-v-fde0c5aa=""><linearGradient data-v-fde0c5aa="" gradientTransform="rotate(25)" id="67bd540c-5e57-480a-a439-34283600352d" x1="0%" y1="0%" x2="100%" y2="0%"><stop data-v-fde0c5aa="" offset="0%" stop-color="#006678" stop-opacity="1"></stop><stop data-v-fde0c5aa="" offset="100%" stop-color="#4FA8FF" stop-opacity="1"></stop></linearGradient></defs><g data-v-fde0c5aa="" id="0aa35804-1cb6-4bef-9b97-46ad885476a6" stroke="none" fill="url(#67bd540c-5e57-480a-a439-34283600352d)" transform="matrix(0.5449371637274018,0,0,0.5449371637274018,39.72614185762749,123.96860816742267)"><path d="M98.704 37.788c-1.139-.654-4.344-.288-4.706-.243l-.476.059c-.591.073-1.225.152-1.911.219a164.83 164.83 0 0 1-.676-.06c-1.251-.113-2.604.026-3.87.039-.191-.608-.753-.802-1.423-.802h-1.13c-.671 0-1.232.194-1.424.802-1.266-.013-2.62-.026-3.87.086-.231.021-.457-.021-.676-.003-.687-.067-1.32-.177-1.912-.251l-.475-.074c-.363-.044-3.571-.419-4.694.229-.568.32-.907 1.022-.774 1.662.252 1.221 1.376 1.337 3.077 1.516.404.042.822.06 1.275.06.878 0 1.891-.07 3.207-.169.093-.007.246-.015.342-.022.988.09 2.412.149 3.412.153v1.366c-1 .166-1 .748-1 1.448V49H64.829l2.653-17.227c.123-.791-.396-1.66-1.18-1.822l-1.455-.36c-.732-.154-1.466.48-1.716 1.186L58.148 45h-6.79l-.37-.768.045-.188c.654.134 1.289.172 1.894.206.239.015.479-.005.717-.005.74 0 1.36-.122 1.954-.352a2.818 2.818 0 0 0 1.106-.746c.236-.263.516-.654.575-1.333a2.401 2.401 0 0 0-.254-1.28 3.876 3.876 0 0 0-.725-1.028c-.761-.797-1.545-1.247-2.28-1.638a16.273 16.273 0 0 0-3.151-1.262c-1.158-.336-2.219-.528-3.239-.587-.986-.06-1.882.006-2.67.309-.319.125-.734.322-1.098.731a2.111 2.111 0 0 0-.582 1.324 2.394 2.394 0 0 0 .251 1.289c.212.45.469.755.724 1.027.761.798 1.545 1.248 2.284 1.64.467.248.951.47 1.453.673l-.069.347c-.293.412-.346.641-.176 1.641h-4.428c-.005-1-5.405-23.222-5.405-23.222-.096-.404-.355-.812-.715-1.018-.361-.206-.791-.286-1.187-.162l-1.454.433c-.684.211-1.124 1.111-1.049 1.823L36.212 49H19v-5.196c0-.7 0-1.283-1-1.448V40.99a44 44 0 0 0 3.412-.155c.096.008.22.016.313.022 1.316.1 2.343.169 3.222.169.453 0 .878-.019 1.283-.061 1.701-.179 2.828-.297 3.081-1.518.131-.633-.199-1.334-.76-1.658-1.138-.657-4.345-.289-4.706-.244l-.475.058c-.591.074-1.225.152-1.912.22a164.83 164.83 0 0 1-.676-.06c-1.25-.113-2.604.027-3.87.04-.19-.609-.752-.803-1.424-.803h-1.13c-.671 0-1.232.193-1.424.801-1.267-.013-2.62-.027-3.87.087-.231.021-.457-.021-.676-.003-.687-.067-1.32-.177-1.912-.25l-.475-.075c-.362-.044-3.567-.418-4.695.229-.568.32-.907 1.022-.775 1.662.253 1.221 1.377 1.337 3.078 1.516.405.042.822.06 1.276.06.878 0 1.891-.07 3.208-.169.092-.007.323-.015.418-.022.988.089 1.489.149 3.489.153v1.367c-1 .165-1 .748-1 1.448V49H9c-.829 0-2 .187-2 1.016v4.874c0 .183 4.71 11.895 4.71 11.895.222.581.904 1.215 1.526 1.215h5.701C19.766 68 20 66.828 20 66v-9h18.892L40 58.546v2.666c0 .723.715 1.325 1.396 1.468l-9.536 9.237c-.442.424-.531 1.324-.302 1.893.227.568.83 1.19 1.442 1.19h4.09c.299 0 .592-.09.84-.257L47.908 68H52.093l9.978 6.743c.247.167.539.257.839.257H67c.612 0 1.163-.622 1.392-1.19s.089-1.344-.354-1.768l-9.435-9.3c.681-.142 1.397-.807 1.397-1.53v-2.666L61.108 57H80v9c0 .828.234 2 1.062 2h5.701c.622 0 1.18-.634 1.401-1.216 0 0 3.835-11.712 3.835-11.895v-4.874C92 49.187 91.828 49 91 49h-2v-5.196c0-.7 0-1.283-1-1.448v-1.367c2-.003 2.5-.063 3.488-.154.096.008.258.016.351.022 1.316.1 2.363.169 3.241.169.453 0 .889-.019 1.293-.061 1.702-.179 2.834-.297 3.086-1.518.132-.635-.192-1.336-.755-1.659zm-51.877 1.208c.2-.004.412.006.626.02.796.046 1.641.201 2.579.473.961.28 1.804.617 2.578 1.029.406.216.781.424 1.123.696a7.592 7.592 0 0 1-.629-.02c-.787-.045-1.632-.2-2.582-.476-.948-.274-1.79-.61-2.575-1.027-.404-.214-.778-.423-1.12-.695zm38.054 3.308v-.485c.066-.017.133-.033.195-.059.062.025.13.042.196.059v.485h-.391zM63.37 39.298L61.792 49H61v-3-.003l2.37-6.699zM43 48h15v1H43v-1zm-5.328-14.151l2.691 11.197c.032.131-.363.695-.363.954v3h-.772l-1.556-15.151zm-22.944 7.97c.066-.017.133-.033.196-.059.062.025.129.042.196.059v.485h-.392v-.485zM14 45h2v4h-2v-4zm39.392 20.007c-.248-.167-.54-.007-.84-.007h-5.104c-.299 0-.592-.16-.84.007l-9.63 6.528L45.903 63h8.195l8.925 8.535-9.631-6.528zM89 54.613L85.73 65H83V55c0-.828-1.109-1-1.938-1h-20.71c-.476 0-.922-.024-1.205.356l-2.057 2.926c-.191.259-.09.447-.09.769V60H43v-1.949c0-.321.101-.635-.091-.894l-2.159-2.801c-.282-.38-.627-.356-1.103-.356h-20.71c-.828 0-1.937.172-1.937 1v10h-2.73L10 54.613V52h79v2.613zM84 49v-4h2v4h-2z"></path></g><!----></svg>